<svg width="21" height="28" viewBox="0 0 21 28" fill="none" xmlns="http://www.w3.org/2000/svg">
<path d="M16.0847 11.734L15.4994 12.2029L15.6167 12.3493L15.7891 12.4233L16.0847 11.734ZM16.0724 11.7186L16.6578 11.2497L16.6531 11.244L16.0724 11.7186ZM18.03 12.5682L17.7344 13.2575L18.78 13.7059V12.5682H18.03ZM19.0761 13.0169H18.3261V13.5113L18.7804 13.7061L19.0761 13.0169ZM19.486 13.1927L19.1904 13.882L19.486 13.1927ZM19.9051 14.3487L20.5738 14.6884V14.6884L19.9051 14.3487ZM19.0761 14.8703L19.048 14.1208L18.3261 14.1479V14.8703H19.0761ZM19.0761 26.9509V27.7009H19.8261V26.9509H19.0761ZM18.03 26.9509H17.28V27.7009H18.03V26.9509ZM18.03 14.5168H18.78V14.0252L18.3292 13.8291L18.03 14.5168ZM14.8917 13.1516L14.2256 12.807L13.8571 13.5194L14.5926 13.8393L14.8917 13.1516ZM14.8925 13.1501L15.5587 13.4946L15.9452 12.7473L15.1585 12.4488L14.8925 13.1501ZM14.4529 12.8361L13.8722 13.3108L13.8722 13.3108L14.4529 12.8361ZM13.146 11.2372L13.7267 10.7625L12.7398 9.55515L12.4127 11.0798L13.146 11.2372ZM12.1279 15.9817L12.8612 16.139L12.8612 16.139L12.1279 15.9817ZM11.9418 16.4461L11.3028 16.0534L11.0186 16.5158L11.369 16.9302L11.9418 16.4461ZM14.623 19.618L15.1958 19.1339L14.623 19.618ZM14.8898 20.6485L14.1571 20.4882L14.1359 20.5851L14.1406 20.6842L14.8898 20.6485ZM15.1258 25.6016L15.8749 25.5659L15.1258 25.6016ZM12.4384 25.7097L13.1876 25.674L12.4384 25.7097ZM12.2038 20.7853L12.953 20.7496L12.9409 20.4955L12.7766 20.3011L12.2038 20.7853ZM9.4543 17.5326L10.0271 17.0484L9.05985 15.9041L8.72345 17.3642L9.4543 17.5326ZM8.81366 20.3131L8.08281 20.1447L8.81366 20.3131ZM8.39386 21.0246L7.89086 20.4683L7.20724 21.0864L7.95136 21.6301L8.39386 21.0246ZM8.3995 21.0287L8.96656 21.5196L9.49964 20.9037L8.842 20.4232L8.3995 21.0287ZM4.10193 25.9935L4.66899 26.4843L4.10193 25.9935ZM2.19606 26.21L1.75355 26.8155L1.75355 26.8155L2.19606 26.21ZM1.99671 24.455L2.56377 24.9459H2.56377L1.99671 24.455ZM6.23904 19.5541L6.8061 20.0449L6.92806 19.9041L6.96989 19.7225L6.23904 19.5541ZM7.41367 14.456L7.55689 13.7198L6.84552 13.5814L6.68281 14.2876L7.41367 14.456ZM7.42705 14.4586L7.28383 15.1948L8.0389 15.3417L8.16664 14.5831L7.42705 14.4586ZM7.44607 14.3592L6.71276 14.2018L6.71276 14.2019L7.44607 14.3592ZM8.7074 8.48088L9.4407 8.63823L8.7074 8.48088ZM11.378 6.69233L11.5117 5.95434L11.378 6.69233ZM12.9666 7.91884L12.2842 8.22988L12.3244 8.31827L12.3859 8.39348L12.9666 7.91884ZM14.7395 3.60882C14.7395 4.57691 13.8651 5.46764 12.6502 5.46764V6.96764C14.5715 6.96764 16.2395 5.52236 16.2395 3.60882H14.7395ZM12.6502 1.75C13.8651 1.75 14.7395 2.64074 14.7395 3.60882H16.2395C16.2395 1.69528 14.5715 0.25 12.6502 0.25V1.75ZM10.5609 3.60882C10.5609 2.64074 11.4352 1.75 12.6502 1.75V0.25C10.7289 0.25 9.06085 1.69528 9.06085 3.60882H10.5609ZM12.6502 5.46764C11.4352 5.46764 10.5609 4.57691 10.5609 3.60882H9.06085C9.06085 5.52236 10.7289 6.96764 12.6502 6.96764V5.46764ZM16.6701 11.265L16.6578 11.2497L15.4871 12.1876L15.4994 12.2029L16.6701 11.265ZM18.3256 11.8789L16.3804 11.0447L15.7891 12.4233L17.7344 13.2575L18.3256 11.8789ZM18.78 12.5682V10.1733H17.28V12.5682H18.78ZM18.78 10.1733C18.78 10.2987 18.6784 10.4003 18.553 10.4003V8.9003C17.85 8.9003 17.28 9.47026 17.28 10.1733H18.78ZM18.553 10.4003C18.4277 10.4003 18.3261 10.2987 18.3261 10.1733H19.8261C19.8261 9.47026 19.2561 8.9003 18.553 8.9003V10.4003ZM18.3261 10.1733V13.0169H19.8261V10.1733H18.3261ZM19.7816 12.5034L19.3717 12.3276L18.7804 13.7061L19.1904 13.882L19.7816 12.5034ZM20.5738 14.6884C20.995 13.8593 20.6363 12.8699 19.7816 12.5034L19.1904 13.882C19.2275 13.8979 19.2406 13.9189 19.246 13.9337C19.2513 13.9485 19.2547 13.973 19.2365 14.009L20.5738 14.6884ZM19.1041 15.6198C19.6977 15.5975 20.2813 15.264 20.5738 14.6884L19.2365 14.009C19.2074 14.0662 19.1353 14.1175 19.048 14.1208L19.1041 15.6198ZM18.3261 14.8703V26.9509H19.8261V14.8703H18.3261ZM19.0761 26.2009H18.03V27.7009H19.0761V26.2009ZM18.78 26.9509V14.5168H17.28V26.9509H18.78ZM14.5926 13.8393L17.7308 15.2045L18.3292 13.8291L15.1909 12.4638L14.5926 13.8393ZM14.2263 12.8055L14.2256 12.807L15.5579 13.4961L15.5587 13.4946L14.2263 12.8055ZM13.8722 13.3108C14.0788 13.5635 14.3433 13.7439 14.6265 13.8513L15.1585 12.4488C15.1051 12.4285 15.0632 12.3977 15.0336 12.3615L13.8722 13.3108ZM12.5653 11.7118L13.8722 13.3108L15.0336 12.3615L13.7267 10.7625L12.5653 11.7118ZM12.8612 16.139L13.8793 11.3945L12.4127 11.0798L11.3946 15.8243L12.8612 16.139ZM12.5808 16.8387C12.7103 16.6279 12.8069 16.3925 12.8612 16.139L11.3946 15.8243C11.3768 15.9073 11.3454 15.9841 11.3028 16.0534L12.5808 16.8387ZM15.1958 19.1339L12.5146 15.9619L11.369 16.9302L14.0502 20.1022L15.1958 19.1339ZM15.6224 20.8088C15.7486 20.232 15.6036 19.6163 15.1958 19.1339L14.0502 20.1022C14.1587 20.2305 14.1829 20.3703 14.1571 20.4882L15.6224 20.8088ZM15.8749 25.5659L15.6389 20.6128L14.1406 20.6842L14.3766 25.6373L15.8749 25.5659ZM13.8762 27.7483C15.0344 27.7017 15.9301 26.7237 15.8749 25.5659L14.3766 25.6373C14.3921 25.9632 14.142 26.2364 13.816 26.2495L13.8762 27.7483ZM11.6893 25.7454C11.7443 26.8988 12.7225 27.7947 13.8762 27.7483L13.816 26.2495C13.4856 26.2628 13.2033 26.0043 13.1876 25.674L11.6893 25.7454ZM11.4547 20.821L11.6893 25.7454L13.1876 25.674L12.953 20.7496L11.4547 20.821ZM8.88152 18.0167L11.631 21.2695L12.7766 20.3011L10.0271 17.0484L8.88152 18.0167ZM9.54451 20.4815L10.1852 17.701L8.72345 17.3642L8.08281 20.1447L9.54451 20.4815ZM8.89686 21.5809C9.20843 21.2992 9.44312 20.9216 9.54451 20.4815L8.08281 20.1447C8.05374 20.2709 7.98621 20.3821 7.89086 20.4683L8.89686 21.5809ZM8.842 20.4232L8.83636 20.419L7.95136 21.6301L7.957 21.6343L8.842 20.4232ZM4.66899 26.4843L8.96656 21.5196L7.83244 20.5379L3.53486 25.5026L4.66899 26.4843ZM1.75355 26.8155C2.64999 27.4706 3.94232 27.3238 4.66899 26.4843L3.53486 25.5026C3.31905 25.7519 2.90481 25.799 2.63858 25.6044L1.75355 26.8155ZM1.42965 23.9642C0.671383 24.8402 0.818122 26.1319 1.75355 26.8155L2.63858 25.6044C2.41133 25.4384 2.37956 25.1587 2.56377 24.9459L1.42965 23.9642ZM5.67198 19.0632L1.42965 23.9642L2.56377 24.9459L6.8061 20.0449L5.67198 19.0632ZM6.68281 14.2876L5.50819 19.3857L6.96989 19.7225L8.14452 14.6244L6.68281 14.2876ZM7.57027 13.7224L7.55689 13.7198L7.27045 15.1922L7.28383 15.1948L7.57027 13.7224ZM6.71276 14.2019C6.70331 14.2459 6.69488 14.29 6.68746 14.334L8.16664 14.5831C8.17036 14.561 8.1746 14.5388 8.17938 14.5165L6.71276 14.2019ZM7.97409 8.32354L6.71276 14.2018L8.17938 14.5165L9.4407 8.63823L7.97409 8.32354ZM11.5117 5.95434C9.89762 5.66195 8.31823 6.7197 7.97409 8.32354L9.4407 8.63823C9.61498 7.82603 10.4269 7.28225 11.2443 7.43032L11.5117 5.95434ZM13.6491 7.6078C13.2671 6.7696 12.4924 6.132 11.5117 5.95434L11.2443 7.43032C11.7297 7.51824 12.101 7.828 12.2842 8.22988L13.6491 7.6078ZM16.6531 11.244L13.5473 7.44419L12.3859 8.39348L15.4917 12.1933L16.6531 11.244Z" fill="#028FDE"/>
</svg>
